<mxfile host="app.diagrams.net" modified="2022-03-07T12:53:17.693Z" agent="5.0 (X11)" etag="IaVVPGDy1W2kVruFbW1y" version="16.6.6" type="github">
  <diagram id="YqP27WUokVk4O-feUTNu" name="Page-1">
    <mxGraphModel dx="1422" dy="749" grid="1" gridSize="10" guides="1" tooltips="1" connect="1" arrows="1" fold="1" page="1" pageScale="1" pageWidth="850" pageHeight="1100" math="0" shadow="0">
      <root>
        <mxCell id="0" />
        <mxCell id="1" parent="0" />
        <mxCell id="Umk5Mk7T6SRKJrNun_KQ-1" value="&lt;div&gt;Page d&#39;acceuil&lt;/div&gt;" style="ellipse;whiteSpace=wrap;html=1;aspect=fixed;" vertex="1" parent="1">
          <mxGeometry x="20" y="340" width="80" height="80" as="geometry" />
        </mxCell>
      </root>
    </mxGraphModel>
  </diagram>
</mxfile>
